# xmcd CD database file
#
# Track frame offsets:
#	150
#	17016
#	31200
#	52905
#	68745
#	83672
#	105580
#	122058
#	133375
#	150042
#	166072
#	182904
#	196848
#	215121
#
# Disc length: 3102 seconds
#
# Revision: 0
# Processed by: cddbd v1.5.2PL0 Copyright (c) Steve Scherf et al.
# Submitted via: ACXtractor (MTCDDB.DLL V2003.07.15)
#
DISCID=b00c1c0e
DTITLE=Karen Lynn - Heart Songs Laugh Lines
DYEAR=2010
DGENRE=Country
TTITLE0=Unbreakable Heart
TTITLE1=Every Time You Leave
TTITLE2=Jenny Dreamed of Trains
TTITLE3=I Cross My Heart
TTITLE4=Why They Call It Falling
TTITLE5=The Road That Bought Me Here
TTITLE6=You Beat All I've Ever Seen
TTITLE7=Crazy
TTITLE8=Dreamland
TTITLE9=Corner of the Heart
TTITLE10=There For You
TTITLE11=The Rose and The Briar
TTITLE12=Something That We Do
TTITLE13=Friends
EXTD=ID3G:   2 YEAR: 2010
EXTT0=
EXTT1=
EXTT2=
EXTT3=
EXTT4=
EXTT5=
EXTT6=
EXTT7=
EXTT8=
EXTT9=
EXTT10=
EXTT11=
EXTT12=
EXTT13=
PLAYORDER=
